# xmcd
#
# Track frame offsets:
#	150
#	20772
#	51289
#	69121
#	85297
#	101861
#	110917
#	117954
#	124756
#	130268
#	147387
#	158971
#	176552
#	201976
#	220642
#	231859
#	245407
#	273667
#
# Disc length: 4058 seconds
#
# Revision: 13
# Processed by: cddbd v1.5.2PL0 Copyright (c) Steve Scherf et al.
# Submitted via: EasyCDDAExtractor 15.3.0.1
#
DISCID=140fd812
DTITLE=Cher - Live - The Farewell Tour
DYEAR=2003
DGENRE=Pop/Rock
TTITLE0=I Still Haven't Found What I'm Looking For
TTITLE1=Song For The Lonely
TTITLE2=All Or Nothing
TTITLE3=I Found Someone
TTITLE4=Bang Bang (My Baby Shot Me Down)
TTITLE5=All I Really Want To Do
TTITLE6=Half Breed
TTITLE7=Gypsys, Tramps and Thieves
TTITLE8=Dark Lady
TTITLE9=Take Me Home
TTITLE10=The Way Of Love
TTITLE11=After All (Love Theme From Chances Are)
TTITLE12=Just Like Jesse James
TTITLE13=Heart Of Stone
TTITLE14=The Shoop Shoop Song (It's In His Kiss)
TTITLE15=Strong Enough
TTITLE16=If I Could Turn Back Time
TTITLE17=Believe
EXTD=YEAR: 2003
EXTT0=
EXTT1=
EXTT2=
EXTT3=
EXTT4=
EXTT5=
EXTT6=
EXTT7=
EXTT8=
EXTT9=
EXTT10=
EXTT11=
EXTT12=
EXTT13=
EXTT14=
EXTT15=
EXTT16=
EXTT17=
PLAYORDER=
